<svg width="20" height="13" viewBox="0 0 20 13" fill="none" xmlns="http://www.w3.org/2000/svg">
<path d="M9.99977 5.1426L18.0139 0.145594C17.9267 0.131781 17.8383 0.122803 17.7476 0.122803H2.25191C2.16126 0.122803 2.07269 0.132126 1.98584 0.145594L9.99977 5.1426Z" fill="#FEC400"/>
<path d="M10.5044 7.07436C10.4937 7.08127 10.482 7.08576 10.4709 7.09232C10.4594 7.09871 10.4469 7.10492 10.4354 7.1108C10.3723 7.14326 10.3074 7.16933 10.2411 7.18659C10.2342 7.18849 10.2276 7.18953 10.2211 7.19091C10.1481 7.208 10.0747 7.21854 10.0011 7.21854C10.0009 7.21854 10.0006 7.21854 10.0004 7.21854C10.0003 7.21854 9.99991 7.21854 9.99956 7.21854C9.92601 7.21854 9.85246 7.20818 9.77976 7.19091C9.77303 7.18936 9.76612 7.18832 9.75939 7.18659C9.69309 7.16916 9.62869 7.14308 9.56532 7.1108C9.55341 7.10492 9.54132 7.09871 9.52958 7.09232C9.51835 7.08593 9.50679 7.08144 9.49574 7.07436L0.59087 1.52173C0.574813 1.61566 0.564453 1.71148 0.564453 1.81025V10.7212C0.564453 11.6532 1.31985 12.4088 2.25205 12.4088H17.7478C18.6798 12.4088 19.4354 11.6532 19.4354 10.7212V1.81025C19.4354 1.71148 19.4252 1.61566 19.4088 1.52173L10.5044 7.07436Z" fill="#FEC400"/>
</svg>
