<svg width="17" height="17" viewBox="0 0 17 17" fill="none" xmlns="http://www.w3.org/2000/svg">
<g clip-path="url(#clip0_215_345)">
<path fill-rule="evenodd" clip-rule="evenodd" d="M15.3958 16.3308H9.51579V11.3051H16.7025V15.0743C16.7025 15.7654 16.1145 16.3308 15.3958 16.3308ZM9.51579 6.84486H8.86246V10.6769H1.02246V6.90768C1.02246 6.21666 1.61046 5.65127 2.32913 5.65127H4.22379C2.91713 4.33204 2.65579 2.51025 3.70113 1.50512C4.74646 0.499992 6.70646 0.751274 8.07846 2.0705C8.40513 2.38461 8.60113 2.69871 8.79713 3.01281C8.99313 2.69871 9.25446 2.32179 9.51579 2.0705C10.8878 0.751274 12.8478 0.499992 13.8931 1.50512C14.9385 2.51025 14.6771 4.33204 13.3705 5.65127H15.3958C16.1145 5.65127 16.7025 6.21666 16.7025 6.90768V10.6769H9.51579V6.84486ZM7.16379 2.94999C6.51046 2.32179 5.53046 2.19615 5.00779 2.69871C4.48513 3.20127 4.61579 4.14358 5.26913 4.77179C5.92246 5.39999 6.90246 5.52563 7.42513 5.02307C7.94779 4.58332 7.81713 3.64102 7.16379 2.94999ZM12.7171 2.69871C12.1945 2.19615 11.2145 2.32179 10.5611 2.94999C9.90779 3.5782 9.77713 4.5205 10.2998 5.02307C10.8225 5.52563 11.8025 5.39999 12.4558 4.77179C13.1091 4.14358 13.2398 3.20127 12.7171 2.69871ZM8.79713 16.3308H2.32913C1.61046 16.3308 1.02246 15.7654 1.02246 15.0743V11.3051H8.79713V16.3308Z" fill="#FEC400"/>
</g>
<defs>
<clipPath id="clip0_215_345">
<rect width="16.3333" height="16.3333" fill="white" transform="translate(0.5 0.5)"/>
</clipPath>
</defs>
</svg>
